<?xml version="1.0" encoding="UTF-8" standalone="no"?>
<!-- Created with Inkscape (http://www.inkscape.org/) -->

<svg
   xmlns:dc="http://purl.org/dc/elements/1.1/"
   xmlns:cc="http://creativecommons.org/ns#"
   xmlns:rdf="http://www.w3.org/1999/02/22-rdf-syntax-ns#"
   xmlns:svg="http://www.w3.org/2000/svg"
   xmlns="http://www.w3.org/2000/svg"
   xmlns:sodipodi="http://sodipodi.sourceforge.net/DTD/sodipodi-0.dtd"
   xmlns:inkscape="http://www.inkscape.org/namespaces/inkscape"
   width="210mm"
   height="297mm"
   viewBox="0 0 210 297"
   version="1.1"
   id="svg22"
   inkscape:version="0.92.0 r15299"
   sodipodi:docname="no-attr.svg">
  <defs
     id="defs16" />
  <sodipodi:namedview
     id="base"
     pagecolor="#ffffff"
     bordercolor="#666666"
     borderopacity="1.0"
     inkscape:pageopacity="0.0"
     inkscape:pageshadow="2"
     inkscape:zoom="0.35"
     inkscape:cx="400"
     inkscape:cy="560"
     inkscape:document-units="mm"
     inkscape:current-layer="layer1"
     showgrid="true"
     showguides="false"
     inkscape:window-width="1080"
     inkscape:window-height="1898"
     inkscape:window-x="-8"
     inkscape:window-y="-8"
     inkscape:window-maximized="1">
    <inkscape:grid
       type="xygrid"
       id="grid39" />
  </sodipodi:namedview>
  <metadata
     id="metadata19">
    <rdf:RDF>
      <cc:Work
         rdf:about="">
        <dc:format>image/svg+xml</dc:format>
        <dc:type
           rdf:resource="http://purl.org/dc/dcmitype/StillImage" />
        <dc:title></dc:title>
      </cc:Work>
    </rdf:RDF>
  </metadata>
  <g
     inkscape:label="Layer 1"
     inkscape:groupmode="layer"
     id="layer1">
    <path
       inkscape:connector-curvature="0"
       style="fill:#000000;stroke:none;stroke-width:0.13368531;stroke-linecap:inherit;stroke-linejoin:inherit;stroke-dasharray:none"
       d="m 141.01659,212.80611 c -16.11908,0 -27.05209,-9.81781 -27.05209,-19.50807 19.06261,2.42252 35.04156,2.42252 54.10418,0 0,9.69026 -10.93301,19.50807 -27.05209,19.50807 z m -22.84711,-34.29856 c -6.86808,0 -12.19446,-4.97268 -12.19446,-11.09284 0,-5.9927 5.32638,-10.96538 12.19446,-10.96538 6.72803,0 12.05432,4.97268 12.05432,10.96538 0,6.12016 -5.32629,11.09284 -12.05432,11.09284 z m 45.83435,0 c -6.86816,0 -12.19445,-4.97268 -12.19445,-11.09284 0,-5.9927 5.32629,-10.96538 12.19445,-10.96538 6.72795,0 12.05433,4.97268 12.05433,10.96538 0,6.12016 -5.32638,11.09284 -12.05433,11.09284 z M 10.662022,238.817 H 201.00767 c 3.08367,0 3.08367,0 3.08367,-2.8051 v -68.46965 c 0,-33.91614 -26.35117,-43.47892 -51.02043,-43.47892 H 141.01659 V 98.562502 h 49.05816 V 60.311278 h -55.2255 c -7.84925,0 -7.84925,0 -7.84925,6.37519 V 136.81371 H 112.98332 V 124.06333 H 49.908568 c -19.483098,0 -42.0498642,9.56278 -42.0498642,43.47892 v 68.46965 c 0,2.8051 0,2.8051 2.8033182,2.8051 z m 13.876462,-12.75046 c -2.663098,0 -2.663098,0 -2.663098,-2.80511 v -55.71918 c 0,-20.14566 8.970564,-30.72854 27.472573,-30.72854 18.361698,0 28.593883,10.58288 28.593883,30.72854 v 55.71918 c 0,2.80511 0,2.80511 -2.803319,2.80511 z m 0,0"
       id="path2" />
  </g>
</svg>
